# Blender 4.4.3
# www.blender.org
mtllib frog_house.mtl
o frog_house
v 0.784607 0.145367 1.084062
v 0.784607 1.281340 -1.084062
v 0.000000 0.143525 -1.224225
v 0.000000 1.372096 -1.224225
v 0.695563 1.372096 -1.224225
v -0.784607 1.281340 -1.084062
v 0.000000 1.568807 1.233061
v 0.000000 1.554003 -1.225330
v -1.146380 1.466985 -1.384637
v -0.695563 0.143525 -1.224225
v -0.782844 1.568807 1.233061
v 1.149545 1.425955 -1.258241
v 1.146506 1.467170 -1.384637
v -1.146380 1.466985 1.384637
v -1.149547 1.426110 1.258241
v 0.000000 2.165537 1.258241
v -0.805681 1.426707 1.258241
v 0.000000 1.426707 1.258241
v 0.000000 1.560194 1.258241
v 1.149545 1.425955 1.258241
v -0.807590 1.560194 1.258241
v 0.782844 1.568807 1.233061
v 0.807590 1.560194 1.258241
v 0.000000 2.155602 1.233061
v -0.428091 0.000000 1.258241
v -0.805681 0.000000 1.258241
v 0.687784 0.117360 1.233061
v 0.444312 0.952531 1.233061
v -0.687784 1.273043 1.233061
v -0.687784 0.117360 1.233061
v 0.437704 0.000000 1.258241
v 0.694392 1.281656 1.258241
v 0.000000 1.281656 1.258241
v 0.687784 1.273043 1.233061
v 0.024363 1.273043 1.233061
v 0.437704 0.108747 1.258241
v 0.694392 0.108747 1.258241
v 0.444312 0.117360 1.233061
v -0.694392 1.281656 1.258241
v -0.694392 0.108747 1.258241
v -0.428091 0.108747 1.258241
v -0.434699 0.117360 1.233061
v -0.023902 1.273043 1.233061
v -0.434699 0.952476 1.233061
v 0.437704 0.947594 1.258241
v 0.341844 0.886214 1.258241
v -0.428091 0.947594 1.258241
v -0.332231 0.887387 1.258241
v 0.341844 0.137395 1.258241
v 0.341844 0.886214 1.182498
v 0.341844 0.137395 1.182498
v 0.000790 1.137601 1.258241
v -0.332231 0.887387 1.182498
v 0.000790 1.137601 1.182499
v -0.332231 0.137395 1.182498
v -0.332231 0.137395 1.258241
v 0.805681 0.000000 1.258241
v 0.805681 1.426707 1.258241
v -0.805681 -0.000000 -1.258241
v -0.805681 1.289953 1.094382
v -0.805681 1.289953 -1.094382
v 0.805681 0.136754 1.094382
v 0.805681 0.136754 -1.094382
v 0.784607 0.145367 -1.084062
v 0.805681 1.289953 -1.094382
v 0.805681 1.289953 1.094382
v 0.784607 1.281340 1.084062
v -0.805681 0.136754 1.094382
v -0.784607 0.145367 -1.084062
v -0.784607 0.145367 1.084062
v -0.784607 1.281340 1.084062
v -0.805681 0.136754 -1.094382
v 0.000000 1.426707 -1.258241
v 0.000093 2.191580 -1.258241
v 0.872669 1.544749 -1.258241
v 0.847355 1.553605 -1.225330
v 0.000091 2.181672 -1.225330
v 0.000000 1.545390 -1.258241
v -0.872897 1.544697 -1.258241
v -0.847617 1.553572 -1.225330
v 0.805681 -0.000000 -1.258241
v 0.000000 -0.000000 -1.258241
v -0.702172 1.380709 -1.258241
v 0.000000 0.134911 -1.258242
v -0.702172 0.134911 -1.258242
v -0.695563 1.372096 -1.224225
v 0.000000 1.380709 -1.258241
v 0.702172 1.380709 -1.258241
v 0.702172 0.134911 -1.258242
v 0.695563 0.143525 -1.224225
v 1.149545 1.425955 1.384637
v 1.146506 1.467170 1.384637
v 0.805681 1.426707 -1.258241
v 0.000110 2.324932 -1.384637
v -1.149547 1.426110 -1.384637
v 0.000105 2.289506 -1.384637
v -0.805681 1.426707 -1.258241
v 0.000105 2.289506 1.384637
v 0.000108 2.324932 1.384637
v 0.000105 2.289506 1.258241
v -1.149547 1.426110 1.384637
v 0.000105 2.289506 -1.258241
v -1.149547 1.426110 -1.258241
v 1.149545 1.425955 -1.384637
v 0.649636 0.105071 1.160173
v -0.618137 0.105071 -1.012054
v -0.618137 1.196278 -1.012054
v 0.649636 1.196278 -1.012054
v 0.649636 1.196277 1.160173
v 0.649636 0.105071 -1.012054
v -0.618137 1.196277 1.160173
v -0.618137 0.105071 1.160173
v 0.341844 1.196278 -1.012054
v 0.341844 0.105071 -1.012054
v 0.341844 1.196277 1.160173
v 0.341844 0.105071 1.160173
v -0.332231 0.105071 -1.012054
v -0.332231 1.196278 -1.012054
v -0.332231 1.196277 1.160173
v -0.332231 0.105071 1.160173
v 0.341844 0.886214 1.160173
v -0.332231 0.887387 1.160173
v 0.000483 1.137371 1.160173
v -0.618137 0.886214 1.160173
v -0.618137 0.886214 -1.012054
v 0.649636 0.886214 -1.012054
v 0.649636 0.886214 1.160173
v 0.341844 0.886214 -1.012054
v -0.332231 0.886214 -1.012054
v 0.000483 1.196278 -1.012054
v 0.000483 1.196277 1.160173
v 0.000483 0.105071 1.160173
v 0.000483 0.105071 -1.012054
v 0.000483 0.886214 -1.012054
v -0.618137 0.137395 1.160173
v 0.341844 0.137395 1.160173
v -0.332231 0.137444 1.160173
v -0.618137 0.137395 -1.012054
v 0.649636 0.137395 -1.012054
v 0.649636 0.137395 1.160173
v 0.341844 0.137395 -1.012054
v -0.332231 0.137395 -1.012054
v 0.000483 0.137395 -1.012054
v -0.000292 0.137420 1.160173
v 0.004807 0.137395 1.258241
v 0.004806 0.137395 1.182498
v 0.649636 0.105071 1.160173
v 0.649636 1.196277 1.160173
v -0.618137 1.196277 1.160173
v 0.341844 1.196277 1.160173
v 0.341844 0.105071 1.160173
v -0.332231 1.196277 1.160173
v -0.332231 0.105071 1.160173
v 0.341844 0.886214 1.160173
v -0.332231 0.887387 1.160173
v 0.000483 1.137371 1.160173
v -0.618137 0.886214 1.160173
v 0.649636 0.886214 1.160173
v 0.000483 1.196277 1.160173
v 0.000483 0.105071 1.160173
v -0.618137 0.137395 1.160173
v 0.341844 0.137395 1.160173
v -0.332231 0.137444 1.160173
v 0.649636 0.137395 1.160173
v -0.000292 0.137420 1.160173
vn -0.5021 -0.2119 -0.8385
vn -0.4231 0.4100 -0.8081
vn 0.0005 0.9671 -0.2545
vn 0.6007 -0.6522 -0.4623
vn 0.5077 0.5247 -0.6834
vn 0.9419 0.1276 0.3108
vn 0.9098 -0.3588 0.2087
vn -0.0000 1.0000 0.0005
vn 0.5254 0.6016 0.6016
vn -0.5722 0.5722 0.5876
vn -0.7071 0.7071 0.0002
vn -0.4211 -0.3209 -0.8484
vn -0.8079 0.4303 -0.4028
vn 0.3773 0.8672 -0.3249
vn -0.0000 -0.6142 -0.7891
vn -0.6007 -0.6522 0.4623
vn -0.5077 0.5247 0.6834
vn -0.9419 0.1276 -0.3108
vn -0.9098 -0.3588 -0.2087
vn -0.0000 -0.2221 0.9750
vn -0.0000 0.0209 0.9998
vn 0.2590 -0.4687 0.8446
vn -0.9759 0.2004 -0.0858
vn -0.0604 -0.7366 0.6736
vn 0.6330 -0.7515 0.1859
vn -0.2594 -0.4701 0.8436
vn -0.9875 0.1460 0.0588
vn -0.5404 0.4971 -0.6788
vn -0.5344 -0.0332 -0.8446
vn -0.6392 -0.6818 -0.3559
vn 0.8058 0.1503 -0.5728
vn 0.8578 0.5135 0.0202
vn -0.8431 -0.4260 0.3282
vn -0.5775 -0.4283 0.6950
vn 0.2884 -0.4695 0.8345
vn 0.3911 -0.9203 0.0016
vn -0.6346 -0.7501 0.1864
vn -0.6346 -0.7501 -0.1864
vn -0.6032 -0.6043 -0.5205
vn -0.8160 -0.1837 0.5481
vn 0.2383 0.3890 0.8899
vn -0.4772 -0.1581 -0.8645
vn -0.4422 -0.4422 -0.7803
vn -0.9935 0.0771 0.0835
vn -0.0559 0.2972 -0.9532
vn 0.0508 0.7977 0.6009
vn 0.9935 -0.0835 -0.0771
vn 0.0093 -0.9304 -0.3664
vn 0.5977 -0.5989 0.5330
vn 0.8175 -0.1833 -0.5460
vn 0.6330 -0.7515 -0.1859
vn -0.1109 -0.8281 -0.5495
vn 0.7602 0.3707 0.5336
vn -0.7281 0.1315 0.6728
vn 0.9881 0.1422 -0.0589
vn 0.8122 0.4132 -0.4119
vn 0.1819 0.6465 -0.7409
vn 0.3751 -0.4071 -0.8328
vn 0.3719 -0.6975 -0.6125
vn 0.1464 0.1124 0.9828
vn 0.1657 -0.2525 0.9533
vn -0.1576 0.7747 0.6124
vn 0.0411 -0.2574 0.9654
vn 0.4917 0.6813 -0.5423
vn 0.3747 0.2460 -0.8939
vn -0.2032 -0.4325 -0.8784
vn -0.1537 -0.7355 -0.6599
vn -0.9409 0.2822 0.1871
vn -0.8442 -0.3612 -0.3961
vn 0.8668 -0.1617 0.4716
vn 0.8797 -0.3217 -0.3502
vn 0.3767 -0.4367 0.8170
vn 0.2080 0.7533 0.6239
vn -0.8058 0.1503 0.5728
vn -0.8797 -0.3217 0.3502
vn -0.7136 -0.6587 -0.2384
vn 0.7281 -0.6728 -0.1315
vn -0.0000 0.7071 -0.7071
vn 0.6242 0.5525 0.5524
vn 0.7052 0.7057 0.0688
vn 0.5774 0.5774 -0.5774
vn -0.0000 -0.0000 1.0000
vn 0.2434 0.1600 0.9566
vn 0.0003 0.9462 0.3236
vn 0.9784 -0.1584 -0.1330
vn 0.9549 0.2538 -0.1544
vn -0.2871 -0.1713 0.9425
vn -0.3588 0.1234 0.9252
vn 0.5637 0.6960 0.4448
vn 0.0238 0.0496 0.9985
vn -0.0508 -0.3643 0.9299
vn -0.1465 0.1124 0.9828
vn -0.2109 -0.1692 0.9628
vn -0.3038 0.8117 0.4988
vn -0.4097 -0.4590 0.7883
vn -0.4049 -0.6217 0.6705
vn 0.3923 -0.4378 0.8090
vn 0.3136 -0.5776 0.7537
vn 0.6617 0.0869 0.7447
vn -0.2105 -0.4697 -0.8573
vn -0.4715 0.5216 -0.7110
vn -0.0000 -0.0000 -1.0000
vn 0.1638 0.1530 -0.9746
vn -0.0000 -0.0002 -1.0000
vn -0.0002 -0.0000 -1.0000
vn 0.7514 0.0153 -0.6596
vn -0.0000 -0.5815 0.8135
vn -0.1922 -0.6513 0.7340
vn -0.7879 0.1667 0.5928
vn 0.2337 0.3780 0.8958
vn 0.4473 0.4272 0.7858
vn -0.5745 0.3991 0.7146
vn 0.7069 0.7073 0.0006
vn 0.0001 -0.0050 -1.0000
vn -0.1192 0.0189 0.9927
vn 0.2019 0.7827 0.5888
vn 1.0000 -0.0000 -0.0002
vn -1.0000 0.0087 -0.0001
vn -0.5775 0.5772 -0.5774
vn -0.0688 0.7055 0.7054
vn -0.0002 0.9938 0.1110
vn -0.2972 0.0559 -0.9532
vn -0.3707 0.7602 0.5336
vn 0.3259 0.7528 0.5719
vn -0.7945 -0.1834 0.5789
vn -0.1834 0.7945 0.5789
vn -0.9812 -0.1738 -0.0835
vn 0.3427 0.0838 -0.9357
vn -0.5999 0.0801 -0.7961
vn 0.3020 0.3016 -0.9043
vn -0.5067 -0.2561 -0.8232
vn -0.3015 0.3015 -0.9045
vn 0.0050 -0.4979 -0.8672
vn 0.5085 -0.2540 -0.8227
vn 0.3021 0.3016 -0.9043
vn 0.0001 0.7075 -0.7067
vn -0.5999 0.0800 -0.7960
vn -0.2971 0.0560 -0.9532
vn -0.4423 -0.4422 -0.7803
vn -0.0560 0.2971 -0.9532
vn -0.5773 0.5774 -0.5774
vn -0.0000 0.7076 -0.7067
vt 0.563965 0.337402
vt 0.558594 0.335449
vt 0.744141 0.337402
vt 1.562500 0.739258
vt 1.562500 0.530273
vt 1.960938 0.530273
vt 1.960938 0.739258
vt 0.631104 0.990891
vt 0.631104 0.972839
vt 0.711426 0.972839
vt 0.711426 0.990891
vt 0.596191 0.298828
vt 0.596191 0.037598
vt 0.744141 0.037598
vt 0.744141 0.298828
vt 0.562500 0.739258
vt 0.562500 0.530273
vt 0.961426 0.530273
vt 0.961426 0.739258
vt 0.522949 0.832275
vt 0.518066 0.836182
vt 0.523438 0.567871
vt 0.518066 0.572754
vt 0.501953 0.290039
vt 0.525879 0.290039
vt 0.526855 0.025879
vt 0.502441 0.025879
vt 0.008621 0.572754
vt 0.008621 0.836182
vt 0.002954 0.567871
vt 0.003408 0.832275
vt 1.560547 0.528809
vt 1.962891 0.528809
vt 0.889648 0.990891
vt 0.889648 0.972839
vt 0.990723 0.972839
vt 0.990723 0.990891
vt 0.478760 0.290039
vt 0.479004 0.025879
vt 0.031860 0.565186
vt 0.031860 0.501953
vt 0.494629 0.501953
vt 0.494629 0.565186
vt 0.855130 0.963287
vt 0.855130 0.772827
vt 0.882324 0.772827
vt 0.882324 0.963287
vt 0.606784 0.772827
vt 0.606784 0.963287
vt 0.579590 0.963287
vt 0.579590 0.772827
vt 1.031250 0.565186
vt 1.031250 0.501953
vt 1.494141 0.501953
vt 1.494141 0.565186
vt 0.476563 0.290039
vt 0.453125 0.290039
vt 0.452637 0.025879
vt 0.476074 0.025879
vt 0.546349 0.935213
vt 0.571777 0.935213
vt 0.571777 0.960907
vt 0.546349 0.960907
vt 1.007813 0.572754
vt 1.007813 0.836182
vt 1.001953 0.567871
vt 1.002930 0.832275
vt 0.892578 0.037598
vt 0.893555 0.035645
vt 0.893555 0.300781
vt 0.892578 0.298828
vt 0.161743 0.032715
vt 0.163208 0.030762
vt 0.163208 0.208984
vt 0.161743 0.209961
vt 0.924805 0.337402
vt 0.930176 0.335449
vt 0.744141 0.473145
vt 0.744141 0.471191
vt 0.963379 0.528809
vt 0.963379 0.740723
vt 1.962891 0.740723
vt 1.560547 0.740723
vt 0.183594 0.195801
vt 0.183594 0.036621
vt 0.561035 0.528809
vt 0.561035 0.740723
vt 0.968168 0.772827
vt 0.993164 0.772827
vt 0.993164 0.963287
vt 0.968168 0.963287
vt 0.700400 0.772827
vt 0.700400 0.963287
vt 0.675293 0.963287
vt 0.675293 0.772827
vt 0.254150 0.310547
vt 0.425781 0.310547
vt 0.426025 0.338867
vt 0.254150 0.338867
vt 0.272705 0.990891
vt 0.272705 0.972839
vt 0.372070 0.972839
vt 0.372070 0.990891
vt 0.527344 0.290039
vt 0.550293 0.290039
vt 0.549805 0.025879
vt 0.254150 0.279785
vt 0.249146 0.278320
vt 0.348877 0.209961
vt 0.347412 0.208984
vt 0.347412 0.030762
vt 0.348877 0.032715
vt 0.402100 0.030762
vt 0.400635 0.032715
vt 0.402100 0.279785
vt 0.400635 0.278320
vt 0.106506 0.279785
vt 0.107910 0.278320
vt 0.259277 0.278320
vt 0.594727 0.300781
vt 0.594727 0.035645
vt 0.572754 0.310547
vt 0.744141 0.310547
vt 0.744141 0.335449
vt 0.744141 0.006836
vt 0.744141 0.035645
vt 0.572754 0.006836
vt 1.517578 0.572754
vt 1.523438 0.567871
vt 1.517578 0.836182
vt 0.254150 0.467285
vt 0.254150 0.465820
vt 0.420898 0.340820
vt 0.082397 0.338867
vt 0.087646 0.340820
vt 0.254150 0.340820
vt 0.550781 0.972839
vt 0.550781 0.990891
vt 1.522461 0.832275
vt 0.916016 0.006836
vt 0.916016 0.310547
vt 0.744141 0.300781
vt 0.499756 0.310059
vt 0.744141 0.494141
vt 0.988770 0.310059
vt 0.106506 0.030762
vt 0.107910 0.032715
vt 0.326904 0.195801
vt 0.254395 0.249023
vt 0.530762 0.765991
vt 0.530762 0.503418
vt 0.425781 0.007324
vt 0.347412 0.007324
vt 0.326904 0.036621
vt 0.255249 0.036621
vt 0.082825 0.310547
vt 0.254150 0.493652
vt 0.009659 0.310547
vt 0.082825 0.007324
vt 0.163208 0.007324
vt 1.530273 0.503418
vt 1.530273 0.765991
vt 0.993652 0.503418
vt 0.993652 0.765991
vt 1.993164 0.503418
vt 1.993164 0.765991
vt 1.517578 0.565186
vt 1.007813 0.565186
vt 0.518066 0.565186
vt 0.008621 0.565186
vt 0.786621 0.772827
vt 0.786621 0.963287
vt 0.759593 0.963287
vt 0.759593 0.772827
vt 0.909234 0.772827
vt 0.909234 0.963287
vt 0.518148 0.935213
vt 0.518148 0.960907
vt 0.467041 0.935213
vt 0.490661 0.935213
vt 0.490661 0.960907
vt 0.467041 0.960907
vt 0.729616 0.772827
vt 0.729616 0.963287
vt 0.939079 0.772827
vt 0.939079 0.963287
vt 0.467041 0.873162
vt 0.490661 0.873162
vt 0.518148 0.873162
vt 0.546349 0.873162
vt 0.571777 0.873162
vt 0.672458 0.772827
vt 0.672458 0.963287
vt 0.789456 0.963287
vt 0.789456 0.772827
vt 0.825378 0.915974
vt 0.825384 0.949611
vt 0.821575 0.949611
vt 0.821575 0.915974
vt 0.490661 0.870483
vt 0.518148 0.870483
vt 0.546349 0.870483
vt 0.571777 0.870483
vt 0.467041 0.870483
vt 0.821575 0.821926
vt 0.823710 0.823039
vt 0.822985 0.912385
vt 0.821575 0.913788
vt 0.864734 0.791116
vt 0.864697 0.793380
vt 0.906194 0.822500
vt 0.904033 0.823566
vt 0.904625 0.914267
vt 0.903268 0.912930
vt 0.863737 0.913174
vt 0.863104 0.915923
vt 0.817722 0.791116
vt 0.817722 0.827329
vt 0.729621 0.827329
vt 0.729622 0.791116
vt 0.693142 0.827329
vt 0.693142 0.791116
vt 0.693142 0.867491
vt 0.700072 0.867491
vt 0.729483 0.906635
vt 0.693142 0.906635
vt 0.693142 0.940273
vt 0.729622 0.940273
vt 0.817716 0.906635
vt 0.817722 0.940273
vt 0.821525 0.791116
vt 0.821525 0.827329
vt 0.821525 0.867491
vt 0.817719 0.867582
vt 0.821525 0.906635
s 1
usemtl MOS_IOS_PROP_KFAR_DHA.001
f 76/1/1 75/2/2 8/3/3
f 67/4/4 1/5/5 64/6/6 2/7/7
f 146/8/8 145/9/9 49/10/10 51/11/11
f 5/12/12 90/13/13 3/14/14 4/15/15
f 6/16/16 69/17/17 70/18/18 71/19/19
f 98/20/20 99/21/21 101/22/22
f 14/23/23 101/22/22 99/21/21
f 98/24/20 100/25/24 20/26/25 91/27/26
f 9/28/27 94/29/28 95/30/29
f 96/31/30 95/30/29 94/29/28
f 1/5/5 62/32/31 63/33/32 64/6/6
f 50/34/33 46/35/34 52/36/35 54/37/36
f 15/27/37 100/24/24 98/38/20 101/39/22
f 103/40/38 97/41/39 17/42/40 15/43/37
f 126/44/41 127/45/42 109/46/43 108/47/44
f 124/48/45 125/49/46 107/50/47 111/51/48
f 14/23/23 99/21/21 94/29/28 9/28/27
f 20/52/25 58/53/49 93/54/50 12/55/51
f 96/56/30 102/57/52 103/58/38 95/59/29
f 128/60/53 126/61/41 108/62/44 113/63/54
f 92/64/55 99/65/21 91/66/26
f 98/67/20 91/66/26 99/65/21
f 10/68/56 85/69/57 83/70/58 86/71/59
f 42/72/60 41/73/61 47/74/62 44/75/63
f 80/76/64 79/77/65 74/78/66 77/79/67
f 70/18/18 68/80/68 60/81/69 71/19/19
f 2/7/7 65/82/70 66/83/71 67/4/4
f 67/4/4 66/83/71 62/32/31 1/5/5
f 48/84/72 47/74/62 41/73/61 56/85/73
f 64/6/6 63/33/32 65/82/70 2/7/7
f 69/17/17 72/86/74 68/80/68 70/18/18
f 77/79/67 74/78/66 75/2/2 76/1/1
f 71/19/19 60/81/69 61/87/75 6/16/16
f 119/88/76 111/89/48 107/90/47 118/91/77
f 120/92/78 117/93/79 106/94/80 112/95/81
f 18/96/82 58/97/49 23/98/83 19/99/84
f 54/100/36 52/101/35 48/102/72 53/103/85
f 12/26/51 102/104/52 96/105/30 104/106/86
f 33/107/87 43/108/88 47/74/62
f 44/75/63 47/74/62 43/108/88
f 28/109/89 45/110/90 36/111/91 38/112/92
f 38/112/92 36/111/91 37/113/93 27/114/94
f 27/114/94 37/113/93 32/115/95 34/116/96
f 39/117/97 29/118/98 33/107/87
f 43/108/88 33/107/87 29/118/98
f 33/107/87 35/119/99 32/115/95
f 34/116/96 32/115/95 35/119/99
f 5/12/12 88/120/100 89/121/101 90/13/13
f 75/2/2 93/122/50 73/123/102 78/124/103
f 45/110/90 28/109/89 33/107/87
f 35/119/99 33/107/87 28/109/89
f 82/125/102 84/126/104 89/121/101 81/127/105
f 35/119/99 28/109/89 34/116/96
f 34/116/96 28/109/89 27/114/94
f 38/112/92 27/114/94 28/109/89
f 13/128/106 104/129/86 94/130/28
f 16/131/107 24/132/108 23/98/83
f 22/133/109 23/98/83 24/132/108
f 21/134/110 11/135/111 16/131/107
f 24/132/108 16/131/107 11/135/111
f 11/135/111 7/136/112 24/132/108
f 24/132/108 7/136/112 22/133/109
f 51/11/11 49/10/10 46/35/34 50/34/33
f 53/103/85 48/102/72 56/137/73 55/138/113
f 96/139/30 94/130/28 104/129/86
f 77/79/67 76/1/1 8/3/3
f 8/3/3 80/76/64 77/79/67
f 13/128/106 94/130/28 99/65/21 92/64/55
f 81/127/105 89/121/101 93/122/50
f 59/140/114 85/69/57 84/126/104 82/125/102
f 58/97/49 18/96/82 33/107/87 32/115/95
f 85/69/57 59/140/114 83/70/58
f 97/141/39 83/70/58 59/140/114
f 83/70/58 97/141/39 87/142/15
f 12/143/51 75/2/2 102/144/52
f 74/78/66 102/144/52 75/2/2
f 102/144/52 74/78/66 103/145/38
f 79/77/65 103/145/38 74/78/66
f 103/145/38 79/77/65 97/141/39
f 29/118/98 39/117/97 40/146/115 30/147/116
f 73/123/102 87/142/15 97/141/39
f 87/142/15 73/123/102 88/120/100
f 93/122/50 88/120/100 73/123/102
f 88/120/100 93/122/50 89/121/101
f 78/124/103 73/123/102 97/141/39 79/77/65
f 93/122/50 75/2/2 12/143/51
f 46/148/34 45/110/90 33/107/87 52/149/35
f 61/87/75 97/150/39 59/151/114 72/86/74
f 47/74/62 48/84/72 52/149/35 33/107/87
f 32/115/95 37/113/93 58/97/49
f 57/152/117 58/97/49 37/113/93
f 57/152/117 37/113/93 31/153/82
f 36/111/91 31/153/82 37/113/93
f 3/14/14 10/68/56 86/71/59 4/15/15
f 36/111/91 49/154/10 41/73/61
f 56/85/73 41/73/61 49/154/10 145/155/9
f 49/154/10 36/111/91 45/110/90 46/148/34
f 20/143/25 23/98/83 58/97/49
f 17/156/40 18/96/82 19/99/84 21/134/110
f 90/13/13 89/121/101 84/126/104 3/14/14
f 23/98/83 20/143/25 16/131/107
f 100/157/24 16/131/107 20/143/25
f 16/131/107 100/157/24 21/134/110
f 15/158/37 21/134/110 100/157/24
f 17/156/40 21/134/110 15/158/37
f 6/16/16 61/87/75 72/86/74 69/17/17
f 33/107/87 18/96/82 17/156/40 39/117/97
f 39/117/97 17/156/40 40/146/115
f 26/159/118 40/146/115 17/156/40
f 26/159/118 25/160/82 40/146/115
f 41/73/61 40/146/115 25/160/82
f 79/77/65 80/76/64 78/124/103
f 57/161/117 62/32/31 66/83/71 58/162/49
f 72/86/74 59/151/114 68/80/68
f 26/163/118 68/80/68 59/151/114
f 60/81/69 17/164/40 61/87/75
f 97/150/39 61/87/75 17/164/40
f 30/147/116 40/146/115 41/73/61 42/72/60
f 4/15/15 87/142/15 88/120/100 5/12/12
f 78/124/103 8/3/3 75/2/2
f 8/3/3 78/124/103 80/76/64
f 81/165/105 63/33/32 57/161/117
f 17/164/40 60/81/69 68/80/68 26/163/118
f 65/82/70 93/166/50 66/83/71
f 58/162/49 66/83/71 93/166/50
f 93/166/50 65/82/70 63/33/32 81/165/105
f 62/32/31 57/161/117 63/33/32
f 86/71/59 83/70/58 87/142/15 4/15/15
f 3/14/14 84/126/104 85/69/57 10/68/56
f 29/118/98 44/75/63 43/108/88
f 29/118/98 30/147/116 44/75/63
f 42/72/60 44/75/63 30/147/116
f 23/98/83 22/133/109 19/99/84
f 7/136/112 19/99/84 22/133/109
f 7/136/112 11/135/111 19/99/84
f 21/134/110 19/99/84 11/135/111
f 12/55/51 104/167/86 13/128/106
f 13/128/106 92/64/55 12/55/51
f 20/52/25 12/55/51 92/64/55
f 92/64/55 91/168/26 20/52/25
f 15/43/37 101/169/22 14/23/23
f 14/23/23 9/28/27 15/43/37
f 103/40/38 15/43/37 9/28/27
f 9/28/27 95/170/29 103/40/38
f 25/160/82 31/153/82 36/111/91 41/73/61
f 105/171/119 110/172/120 114/173/121 116/174/78
f 109/46/43 115/175/122 113/176/54 108/47/44
f 134/177/53 128/60/53 113/63/54 130/178/54
f 125/179/46 129/180/123 118/181/77 107/182/47
f 132/183/78 133/184/79 117/93/79 120/92/78
f 131/185/76 119/88/76 118/91/77 130/186/54
f 138/187/124 142/188/125 129/180/123 125/179/46
f 143/189/126 141/190/125 128/60/53 134/177/53
f 141/190/125 139/191/127 126/61/41 128/60/53
f 135/192/128 138/193/124 125/49/46 124/48/45
f 139/194/127 140/195/129 127/45/42 126/44/41
f 142/188/125 143/189/126 134/177/53 129/180/123
f 115/175/122 131/185/76 130/186/54 113/176/54
f 116/174/78 114/173/121 133/184/79 132/183/78
f 129/180/123 134/177/53 130/178/54 118/181/77
f 135/196/128 137/197/130 120/198/78 112/199/81
f 117/200/79 133/201/79 143/189/126 142/188/125
f 110/172/120 105/171/119 140/195/129 139/194/127
f 112/95/81 106/94/80 138/193/124 135/192/128
f 114/202/121 110/203/120 139/191/127 141/190/125
f 133/201/79 114/202/121 141/190/125 143/189/126
f 106/204/80 117/200/79 142/188/125 138/187/124
f 50/205/33 121/206/131 136/207/132 51/208/11
f 54/209/36 123/210/133 121/206/131 50/205/33
f 54/209/36 53/211/85 122/212/134 123/210/133
f 53/211/85 55/213/113 137/214/135 122/212/134
f 55/138/113 56/137/73 145/9/9 146/8/8
f 144/215/136 146/216/8 51/208/11 136/207/132
f 55/213/113 146/216/8 144/215/136 137/214/135
f 164/217/137 162/218/132 154/219/131 158/220/42
f 158/220/42 154/219/131 150/221/138 148/222/139
f 159/223/76 150/221/138 154/219/131 156/224/133
f 156/224/133 155/225/134 152/226/76 159/223/76
f 149/227/48 152/226/76 155/225/134 157/228/140
f 157/228/140 155/225/134 163/229/130 161/230/128
f 147/231/141 151/232/78 162/218/132 164/217/137
f 160/233/78 165/234/142 162/218/132 151/232/78
f 153/235/78 163/229/130 165/234/142 160/233/78
